<svg xmlns="http://www.w3.org/2000/svg" viewBox="0 0 100 100">
    <path style="fill: #fff" d="M91.417 70.362a1.626 1.626 0 00-.748-.977l-10.319-5.97 9.342-5.402a1.627 1.627 0 00.594-2.2l-1.98-3.441a1.603 1.603 0 00-2.195-.589L73.176 59.26 57.181 50 73.2 40.741l12.917 7.478c.77.445 1.753.182 2.197-.591l1.988-3.439a1.625 1.625 0 00-.586-2.202l-9.329-5.401 10.336-5.972a1.629 1.629 0 00.592-2.201l-1.979-3.438a1.616 1.616 0 00-2.194-.59l-10.334 5.973.015-10.798a1.606 1.606 0 00-1.605-1.611h-3.965c-.888 0-1.61.72-1.611 1.611l-.024 14.95-16.021 9.259.025-18.517 12.938-7.477a1.632 1.632 0 00.592-2.205l-1.976-3.437a1.607 1.607 0 00-2.197-.591l-9.345 5.398.018-11.945a1.607 1.607 0 00-1.607-1.611l-3.959.001a1.61 1.61 0 00-1.611 1.61l-.017 11.945-9.328-5.398a1.606 1.606 0 00-2.197.59l-1.988 3.437a1.633 1.633 0 00.585 2.205l12.916 7.475-.026 18.52-15.996-9.26.021-14.954a1.604 1.604 0 00-1.604-1.61l-3.963-.001a1.63 1.63 0 00-1.614 1.61l-.015 10.803-10.316-5.973a1.623 1.623 0 00-2.199.589l-1.987 3.438a1.628 1.628 0 00.586 2.201l10.317 5.975-9.341 5.398a1.614 1.614 0 00-.592 2.202l1.977 3.438a1.604 1.604 0 002.198.591l12.935-7.476L42.817 50l-16.016 9.26-12.916-7.478a1.61 1.61 0 00-2.2.589L9.699 55.81a1.628 1.628 0 00.585 2.202l9.329 5.401-10.335 5.973a1.627 1.627 0 00-.591 2.202l1.979 3.438a1.62 1.62 0 002.196.59l10.331-5.974-.015 10.801a1.607 1.607 0 001.607 1.611h3.965a1.61 1.61 0 001.608-1.611l.021-14.954L46.4 56.231l-.026 18.52-12.937 7.474a1.617 1.617 0 00-.591 2.202l1.979 3.439a1.62 1.62 0 002.195.59l9.343-5.399-.017 11.946a1.607 1.607 0 001.606 1.611l3.964.001a1.615 1.615 0 001.61-1.612l.017-11.946 9.326 5.4c.769.442 1.753.18 2.198-.59l1.985-3.44a1.624 1.624 0 00-.586-2.202l-12.913-7.474.026-18.521 15.993 9.26-.021 14.954a1.61 1.61 0 001.606 1.612h3.965c.877 0 1.609-.733 1.611-1.612l.015-10.801 10.316 5.975c.769.444 1.753.18 2.198-.591l1.988-3.438c.216-.371.275-.812.167-1.227-.111-.41.108.415 0 0z"/>
</svg>
