<svg xmlns="http://www.w3.org/2000/svg" viewBox="0 0 100 100">
	<circle cx="50.002" cy="50.324" r="10.597"/>
	<path d="M74.781,31.573c-0.576-1.484-1.264-2.543-2.377-3.655c-1.111-1.112-2.17-1.802-3.652-2.377 c-1.121-0.435-2.805-1.084-5.902-1.227C59.496,24.163,58.49,24,50.002,24C48.943,24,48,24,48,24v0.255 c-6,0.006-7.487,0.046-10.421,0.178c-3.098,0.143-4.993,0.659-6.114,1.096c-1.482,0.577-2.646,1.267-3.762,2.378 c-1.113,1.114-1.854,2.173-2.43,3.655c-0.436,1.121-0.979,2.804-1.124,5.903c-0.15,3.352-0.196,4.354-0.196,12.843 c0,8.488,0.025,9.494,0.176,12.848c0.142,3.098,0.659,4.78,1.095,5.901c0.576,1.482,1.263,2.538,2.375,3.653 c1.115,1.112,2.172,1.801,3.655,2.377c1.121,0.436,2.803,0.953,5.901,1.095c3.354,0.153,4.36,0.186,12.848,0.186 c8.488,0,9.496-0.032,12.847-0.186c3.098-0.142,4.783-0.656,5.902-1.095c1.484-0.576,2.541-1.265,3.652-2.377 c1.113-1.112,1.805-2.168,2.377-3.65c0.436-1.121,0.957-2.804,1.098-5.901c0.15-3.354,0.186-4.36,0.186-12.844 c0-8.483-0.035-9.491-0.186-12.841C75.738,34.375,75.217,32.693,74.781,31.573z M50.002,66.646 c-9.017,0-16.324-7.305-16.324-16.322c0-9.016,7.308-16.325,16.324-16.325c9.017,0,16.324,7.309,16.324,16.325 C66.326,59.341,59.02,66.646,50.002,66.646z M66.971,37.169c-2.105,0-3.797-1.708-3.797-3.814S65,29.542,67,29.542v-0.003 c2,0,3.801,1.709,3.801,3.816S69.078,37.169,66.971,37.169z"/>
	<path d="M50,2C23.312,2,1.676,23.635,1.676,50.324c0,26.688,21.636,48.324,48.323,48.324c26.688,0,48.325-21.636,48.325-48.324 C98.324,23.635,76.688,2,50,2z M81.598,63.431c-0.158,3.383-0.693,5.692-1.477,7.714c-0.814,2.091-1.9,3.865-3.668,5.63 c-1.768,1.769-3.539,2.86-5.629,3.672c-2.023,0.785-4.336,1.321-7.719,1.477c-3.393,0.153-4.471,0.191-13.106,0.191 c-8.635,0-9.717-0.038-13.106-0.191c-3.386-0.155-5.695-0.691-7.719-1.477c-2.089-0.812-3.863-1.903-5.628-3.672 c-1.769-1.765-2.854-3.539-3.669-5.63c-0.785-2.021-1.321-4.331-1.477-7.717c-0.153-3.39-0.191-4.469-0.191-13.104 c0-8.633,0.041-9.717,0.191-13.109c0.152-3.383,0.688-5.692,1.477-7.715c0.815-2.09,1.9-3.864,3.669-5.631 c1.768-1.768,3.542-2.855,5.634-3.667c2.021-0.786,4.33-1.087,7.713-1.244C40.285,18.805,41.368,19,49.998,19 c-0.001,0-0.002,0-0.004,0h0.009C50,19,50,19,49.998,19c8.631,0,9.711-0.195,13.102-0.042c3.383,0.156,5.695,0.575,7.723,1.36 c2.094,0.812,3.863,1.839,5.631,3.608c1.768,1.767,2.854,3.512,3.668,5.604c0.783,2.021,1.318,4.316,1.477,7.7 c0.154,3.391,0.191,4.467,0.191,13.101C81.789,58.966,81.752,60.038,81.598,63.431z"/>
</svg>
