<svg xmlns="http://www.w3.org/2000/svg" viewBox="0 0 100 100">
    <path d="M84.271,18.973H16.73c-4.18,0-7.568,3.388-7.568,7.568v46.918c0,4.181,3.388,7.568,7.568,7.568h67.541 c4.18,0,7.567-3.388,7.567-7.568V26.541C91.838,22.361,88.45,18.973,84.271,18.973z M83.324,27.486v7.152 c-13.047,9.53-22.537,16.545-23.22,17.088c-2.407,1.918-6.889,5.486-9.324,5.486c-2.445,0-6.965-3.527-9.394-5.421 c-0.705-0.55-10.539-7.89-23.71-17.74v-6.565H83.324z M17.676,72.514V44.683c8.012,5.989,17.822,13.313,18.473,13.821 c3.907,3.048,9.258,7.223,14.631,7.223c5.411,0,10.738-4.243,14.628-7.341c0.632-0.502,8.183-6.093,17.916-13.204v27.332H17.676z"/>
</svg>
