<svg xmlns="http://www.w3.org/2000/svg" viewBox="0 0 100 100">
    <polygon points="24.426,64.747 34.999,47.417 61.696,47.417 71.586,31.207 44.888,31.207 50.239,22.437 67.664,22.437 67.664,17.426 45.623,17.426 18.829,61.344 21.062,62.701 18.46,67.071 8.15,60.932 4.482,64.55 28.602,78.913 30.036,73.964 19.725,67.825 22.32,63.467"/>
	<polygon points="90.834,77.123 95.653,72.688 83.109,59.181 83.109,31.207 74.828,31.207 56.204,61.735 72.439,79.301 81.425,79.301 65.75,62.084 74.167,48.287 74.167,59.322"/>
	<circle cx="28.737" cy="26.822" r="8.143"/>
</svg>
