<svg xmlns="http://www.w3.org/2000/svg" viewBox="0 0 100 100">
	<ellipse cx="19.519" cy="32.434" rx="7.517" ry="7.528"/>
	<polygon points="90.376,80.861 73.384,65.057 73.384,37.453 45.825,67.566 45.825,71.33 72.131,71.33 82.835,80.861 70.733,80.861 70.733,85.652 70.878,85.652 94.679,85.652 94.679,81.367 94.679,80.861"/>
	<path d="M49.582,13.613l-21.294,21.33V71.33l-7.921,9.432H5.321 c0,0.006,0,2.383,0,2.383l3.1,3.242h14.855l5.034-6.049h6.081V73.98l36.486-40.292L49.582,13.613z M34.552,63.801v-16.31h15.03 L34.552,63.801z"/>
</svg>
