<svg xmlns="http://www.w3.org/2000/svg" viewBox="0 0 100 100">
    <path d="M24.376 48.863c-8.121 0-14.704 6.584-14.704 14.705 0 8.12 14.704 24.584 14.704 24.584s14.705-16.464 14.705-24.584c.001-8.121-6.583-14.705-14.705-14.705zm0 19.957c-2.782 0-5.036-2.254-5.036-5.036 0-2.78 2.254-5.035 5.036-5.035 2.781 0 5.036 2.255 5.036 5.035.001 2.782-2.254 5.036-5.036 5.036z"/>
    <path d="M73.564 58.72H58.506c-2.598 0-4.711-2.158-4.711-4.756s2.113-4.756 4.711-4.756h14.938c2.281-2.621 14.705-17.304 14.705-24.656 0-8.121-6.586-14.704-14.705-14.704-8.123 0-14.705 6.583-14.705 14.704 0 3.869 3.338 9.632 6.834 14.606h-7.066c-8.141 0-14.761 6.666-14.761 14.806s6.619 14.806 14.76 14.806h15.059c2.6 0 4.713 2.068 4.713 4.667 0 2.597-2.113 4.665-4.713 4.665h-35.21c-.772 1.199-1.619 2.444-2.541 3.73-1.742 2.432-3.476 4.633-4.854 6.32h42.605c8.141 0 14.764-6.578 14.764-14.716-.001-8.139-6.624-14.716-14.765-14.716zm-.121-38.988c2.781 0 5.035 2.255 5.035 5.036s-2.254 5.036-5.035 5.036-5.037-2.255-5.037-5.036 2.256-5.036 5.037-5.036z"/>
</svg>
