<svg xmlns="http://www.w3.org/2000/svg" viewBox="0 0 100 100">
    <path d="M73.006 81.674s-1.448-7.305-1.593-8.009c-.145-.703-.719-1.198-1.437-1.198-.189 0-.345.046-.536.103-.192.058-4.81 1.455-7.413 1.455-8.306 0-15.522-5.375-19.084-13.092h18.375c.687 0 1.283-.486 1.417-1.087.135-.603 1.187-5.323 1.231-5.497.042-.174.074-.321.074-.425 0-.808-.654-1.427-1.462-1.427H40.687c-.07-.897-.107-1.622-.107-2.436 0-1.362.103-2.769.298-4.024h23.761c.687 0 1.284-.514 1.418-1.114.134-.602 1.187-5.336 1.231-5.51.043-.174.074-.393.074-.495 0-.808-.654-1.495-1.461-1.495H43.742c3.775-6.82 10.559-11.446 18.284-11.446 2.031 0 5.682.89 5.859.929.153.033.322.071.49.071.677 0 1.25-.471 1.4-1.062s1.973-7.798 2-7.91c.026-.111.043-.226.043-.345 0-.668-.511-1.296-1.059-1.403-.549-.108-5.716-1.195-8.734-1.195-14.52 0-26.916 9.261-31.835 22.362h-5.559c-.918 0-1.686.81-1.686 1.728v5.221c0 .917.768 1.666 1.686 1.666h3.517c-.146 1.256-.225 2.672-.225 4.024 0 .81.03 1.538.083 2.436h-3.375c-.918 0-1.686.685-1.686 1.603v5.221c0 .918.768 1.612 1.686 1.612h5.004c4.485 13.998 17.29 24.007 32.39 24.007 3.47 0 9.421-1.383 9.973-1.516.553-.134 1.052-.731 1.052-1.396.002-.128-.014-.241-.044-.356z"/>
</svg>
