<svg xmlns="http://www.w3.org/2000/svg" viewBox="0 0 253.662 84.348">
  <path d="M52.814 33.605c-11.997.455-18.452 1.318-30.957 4.212C1.342 42.566-6.042 48.353 5.362 50.742c1.635.343 3.176 1.348 5.348 1.518 34.371 4.16 154.775 1.305 194.953 10.562 5.495 1.266 48.627 11.944 26.186 21.526l1.228-.088 20.586-10.292c-7.365-6.937-31.263-12.694-35.335-13.547-41.635-8.723-159.275-4.306-190.772-8.924l.572-.033c-2.709-.212-5.135-.531-7.192-.962-12.994-2.722-6.39-8.896 14.751-13.789 7.85-1.817 8.561-2.223 17.127-3.108z"/>
  <path d="M52.3 50.765l.287-28.3h16.968v5.044H58.457l-.092 8.164h11.007v4.77H58.319l-.046 8.713h11.282v2.045c-6.127-.116-11.92-.256-17.255-.436zM75.834 51.312l.25-28.848h5.87l-.25 28.938-5.87-.09zM88.256 51.493l1.824-3.577c1.467 1.01 3.852 2.156 5.595 2.156 3.256 0 5.091-2.063 5.091-4.586-.046-6.329-13.024-3.623-13.024-14.446 0-5.182 4.219-9.217 10.594-9.217 3.164 0 6.237 1.1 8.942 2.66l-2.476 4.219c-1.926-1.055-3.715-2.109-6.008-2.109-2.66 0-5.182 1.421-5.182 4.265 0 6.237 13.299 4.265 13.299 14.4 0 2.51-.938 4.754-2.557 6.439l-16.098-.204zM119.421 51.902l.209-24.393h-8.896l.045-5.045h23.526l-.045 5.045h-8.76l-.21 24.487-5.869-.094z"/>
  <path d="M139.562 52.272l.301-29.808h10.044c7.658 0 10.777 4.128 10.777 9.172 0 4.036-2.43 6.924-6.145 8.255l9.034 11.832-2 1.194-4.733-.169-7.3-10.152c-.55-.779-1.238-1.1-2.109-1.1h-1.834l-.04 10.92-5.995-.144zm6.126-15.545h3.624c1.743 0 5.229-.78 5.229-4.907 0-3.027-2.385-4.586-5.366-4.586h-3.394l-.093 9.493z"/>
  <path d="M185.643 49.155v5.008c-5.471-.382-11.263-.7-17.279-.969l.311-30.73h16.968v5.044h-11.098l-.092 8.164h11.006v4.77h-11.052l-.046 8.713h11.282zM192.081 54.2l.32-31.736h17.564l-.045 5.045h-11.649l-.046 8.163h11.557l-.046 5.045h-11.602l-.047 13.483h-6.006zM215.807 54.2l.321-31.736h17.564l-.046 5.045h-11.647l-.047 8.163h11.557l-.046 5.045h-11.602l-.047 13.483h-6.007zM63.508 62.785h-1.463l-1.168 9.15-1.802-9.15h-1.956l-1.787 9.05-1.196-9.05h-1.464l1.689 10.135h1.871l1.858-9.163 1.83 9.163h1.886l1.702-10.135z"/>
  <path d="M73.713 72.92l-2.646-10.135h-1.745L66.677 72.92h1.379l.521-2.196h3.237l.521 2.196h1.378zm-2.138-3.295h-2.759l1.379-5.771 1.38 5.771z"/>
  <path d="M82.23 72.92v-1.183h-2.955v-8.952h-1.267V72.92h4.222z"/>
  <path d="M92.719 67.853c0-4.377-1.661-5.067-4.166-5.067h-1.745V72.92h1.604c2.534 0 4.307-.733 4.307-5.067zm-1.266 0c0 3.294-1.013 3.954-2.814 3.954h-.563v-7.909h.676c1.687 0 2.701.549 2.701 3.955zM103.63 70.034c0-1.506-.774-2.181-1.9-2.378.943-.295 1.619-1.055 1.619-2.379 0-1.702-.858-2.491-3.138-2.491H97.86V72.92h2.364c2.083 0 3.406-.592 3.406-2.886zm-1.548-4.714c0 1.406-.732 1.899-1.872 1.899h-1.084v-3.405h1.084c1.168-.001 1.872.351 1.872 1.506zm.281 4.714c0 1.252-.704 1.858-2.139 1.858h-1.098v-3.688h1.084c1.436 0 2.153.592 2.153 1.83zM115.032 72.92l-2.421-4.8c1.168-.421 1.788-1.463 1.788-2.646 0-2.238-1.379-2.689-3.42-2.689h-2.209V72.92h1.266v-4.603h1.253l2.238 4.603h1.505zm-1.9-7.446c0 1.154-.633 1.816-2.097 1.816h-1v-3.364h.887c1.62 0 2.21.281 2.21 1.548zM125.169 67.853c0-4.729-2.026-5.207-3.167-5.207-1.14 0-3.167.449-3.167 5.207s1.928 5.207 3.167 5.207c1.239-.001 3.167-.409 3.167-5.207zm-1.267 0c0 3.405-1.042 4.208-1.9 4.208-.859 0-1.9-.76-1.9-4.208 0-3.364.915-4.208 1.9-4.208.985 0 1.9.928 1.9 4.208z"/>
  <path d="M136.08 72.92V62.785h-1.267v7.404l-3.378-7.404h-1.267V72.92h1.267v-7.418l3.378 7.418h1.267zM147.553 72.92V62.785h-1.267v7.404l-3.378-7.404h-1.266V72.92h1.266v-7.418l3.378 7.418h1.267zM78.378 20.652v-3.251l-2.833 1.619-.516-.894 3.349-1.925v-4.982l-4.312 2.498v3.851H73.02v-3.265l-2.82 1.633-.515-.894 2.817-1.632-2.817-1.619.515-.907 3.336 1.926 4.325-2.484-4.325-2.484L70.2 9.754l-.515-.893 2.817-1.619-2.817-1.632.515-.894 2.82 1.619V3.084h1.046v3.852l4.312 2.497V4.438l-3.335-1.912.516-.907 2.819 1.632V0h1.032v3.251l2.819-1.632.517.907-3.336 1.912v4.995l4.312-2.497V3.084h1.032v3.251l2.82-1.619.53.894-2.819 1.632 2.819 1.619-.517.893-3.348-1.912-4.312 2.484 4.312 2.484 3.335-1.926.53.907-2.819 1.619 2.819 1.632-.517.894-2.833-1.633v3.265h-1.032v-3.851l-4.312-2.498v4.982l3.349 1.925-.516.894-2.833-1.619v3.251h-1.032z"/>
</svg>
