<svg xmlns="http://www.w3.org/2000/svg" viewBox="0 0 283.5 93.5">
  <path fill="#06659E" d="M60.5 37.3A154 154 0 0026 41.9C3.4 47.2-4.9 53.6 7.8 56.3c1.8.4 3.6 1.5 6 1.7 38 4.6 171.6 1.4 216.2 11.7 6 1.4 53.9 13.2 29 23.8h1.4L283.2 82c-8.2-7.7-34.7-14-39.2-15-46.2-9.7-176.6-4.8-211.6-9.9h.7c-3-.3-5.7-.6-8-1-14.4-3.1-7-10 16.4-15.4 8.7-2 9.5-2.5 19-3.4z"/>
  <path fill="#06659E" d="M59.9 56.3l.3-31.4H79v5.6H66.7v9h12.1V45H66.6v9.6H79v2.3L60 56.3zM86 56.9l.3-32h6.5L92.5 57l-6.5-.1zM99.8 57.1l2-4a13 13 0 006.2 2.4c3.6 0 5.6-2.3 5.6-5 0-7-14.4-4-14.4-16 0-5.8 4.7-10.3 11.7-10.3 3.5 0 7 1.2 10 3l-2.8 4.6c-2.1-1.1-4.1-2.3-6.7-2.3-2.9 0-5.7 1.6-5.7 4.7 0 7 14.7 4.8 14.7 16 0 2.8-1 5.3-2.8 7.1l-17.8-.2zM134.3 57.6l.3-27.1h-9.9v-5.6h26.1v5.6h-9.7l-.3 27.2-6.5-.1z"/>
  <path fill="#06659E" d="M156.7 58l.3-33H168c8.5 0 12 4.5 12 10 0 4.6-2.7 7.8-6.8 9.2l10 13.2-2.2 1.3-5.3-.2-8-11.3a2.7 2.7 0 00-2.4-1.2h-2v12.1l-6.7-.1zm6.8-17.3h4c2 0 5.8-.8 5.8-5.4 0-3.4-2.7-5.1-6-5.1h-3.7l-.1 10.5z"/>
  <path fill="#06659E" d="M207.8 54.5v5.6c-6.1-.5-12.5-.8-19.2-1.1l.3-34h18.9v5.5h-12.3l-.1 9h12.2V45h-12.3v9.6h12.5zM214.9 60.1l.4-35.2h19.4v5.6h-12.9l-.1 9.1h12.8v5.6h-12.9v14.9h-6.7zM241.2 60.1l.4-35.2h19.5l-.1 5.6h-12.9l-.1 9.1h12.8v5.6h-12.9v14.9h-6.7zM72.3 69.6h-1.6l-1.3 10.2-2-10.2h-2.2l-2 10.1-1.3-10.1h-1.6l1.9 11.3h2l2.1-10.2 2 10.2h2.1l1.9-11.3z"/>
  <path fill="#06659E" d="M83.6 80.9l-2.9-11.3h-2L75.9 81h1.6l.5-2.5h3.6l.6 2.5h1.5zm-2.3-3.7h-3.1l1.5-6.4 1.6 6.4z"/>
  <path fill="#06659E" d="M93.1 80.9v-1.3h-3.3v-10h-1.4v11.3h4.7z"/>
  <path fill="#06659E" d="M104.7 75.3c0-4.9-1.8-5.7-4.6-5.7h-2V81h1.8c2.8 0 4.8-.8 4.8-5.7zm-1.4 0c0 3.6-1.1 4.3-3.1 4.3h-.6V71h.7c1.9 0 3 .6 3 4.3zM116.8 77.7c0-1.7-.8-2.4-2.1-2.7 1-.3 1.8-1.1 1.8-2.6 0-1.9-1-2.8-3.5-2.8h-2.6V81h2.6c2.3 0 3.8-.7 3.8-3.2zm-1.7-5.3c0 1.6-.8 2.1-2 2.1h-1.3v-3.7h1.2c1.3 0 2 .4 2 1.6zm.3 5.3c0 1.4-.8 2-2.4 2h-1.2v-4h1.2c1.6 0 2.4.6 2.4 2zM129.5 80.9l-2.7-5.4a3 3 0 002-2.9c0-2.5-1.6-3-3.8-3h-2.5V81h1.4v-5.1h1.4l2.5 5h1.7zm-2.2-8.3c0 1.3-.7 2-2.3 2h-1V71h.9c1.8 0 2.4.3 2.4 1.7zM140.7 75.3c0-5.3-2.2-5.8-3.5-5.8s-3.5.5-3.5 5.7 2.1 5.8 3.5 5.8 3.5-.4 3.5-5.8zm-1.4 0c0 3.7-1.2 4.6-2.1 4.6-1 0-2.1-.8-2.1-4.7 0-3.7 1-4.6 2-4.6 1.2 0 2.2 1 2.2 4.7z"/>
  <path fill="#06659E" d="M152.8 80.9V69.6h-1.4v8.2l-3.8-8.2h-1.4v11.3h1.4v-8.3l3.8 8.3h1.4zM165.5 80.9V69.6h-1.4v8.2l-3.7-8.2H159v11.3h1.4v-8.3l3.7 8.3h1.4zM88.5 23.6V20l-3.1 1.8-.6-1 3.7-2.2v-5.5l-4.7 2.8v4.3h-1.2v-3.7l-3.1 1.8-.6-.9 3.1-1.9-3.1-1.7.6-1.1 3.7 2.2 4.8-2.8-4.8-2.7-3.7 2.1-.6-1L82 8.7l-3.1-1.8.6-1 3.1 1.8V4.1h1.2v4.3l4.7 2.7V5.6l-3.7-2.1.6-1 3.1 1.8V.7h1.2v3.6l3.1-1.8.6 1-3.7 2.1v5.5l4.8-2.7V4.1h1.1v3.6l3.1-1.8.6 1-3.1 1.8 3.1 1.8-.5 1L95 9.4l-4.7 2.7 4.7 2.8 3.7-2.2.6 1.1-3.1 1.7 3.1 1.9-.5.9-3.2-1.8v3.7h-1.1v-4.3l-4.8-2.8v5.5l3.7 2.2-.6 1-3.1-1.8v3.6h-1.2z"/>
  <path fill="#7FB6CA" d="M89.1 22.9v-3.6l-3.2 1.8-.5-1 3.7-2.1v-5.6l-4.8 2.8v4.3h-1.2v-3.6L80 17.7l-.6-1 3.2-1.8-3.2-1.8.6-1 3.7 2.1 4.8-2.7-4.8-2.8-3.7 2.1-.6-1L82.6 8l-3.2-1.8.6-1L83.1 7V3.4h1.2v4.3l4.8 2.8V4.9l-3.7-2.1.6-1 3.1 1.8V0h1.1v3.6l3.2-1.8.5 1-3.7 2.1v5.6L95 7.7V3.4h1.2V7l3.1-1.8.6 1L96.7 8l3.2 1.8-.6 1-3.7-2.1-4.8 2.8 4.8 2.7 3.7-2.1.6 1-3.2 1.8 3.2 1.8-.6 1-3.1-1.8v3.6H95v-4.3l-4.8-2.8V18l3.7 2.1-.5 1-3.2-1.8v3.6h-1.1zM58.6 36.3A154 154 0 0024.2 41C1.5 46.3-6.7 52.7 6 55.3c1.9.4 3.6 1.5 6 1.7 38 4.6 171.6 1.5 216.2 11.7 6 1.4 54 13.3 29 23.9l1.4-.1 22.8-11.4c-8.2-7.7-34.7-14-39.2-15C196 56.4 65.5 61.3 30.6 56h.6c-3-.2-5.7-.6-8-1-14.4-3-7-9.9 16.4-15.3 8.7-2 9.5-2.5 19-3.5z"/>
</svg>
