<svg xmlns="http://www.w3.org/2000/svg" viewBox="0 0 100 100">
	<ellipse cx="47.35" cy="12.121" rx="7.936" ry="7.949"/>
	<polygon points="38.862,68.197 57.908,52.336 57.908,38.473 71.214,57.557 76.832,53.738 55.807,22.919 39.184,22.919 31.277,46.033 21.458,55.846 26.371,60.736 37.585,49.535 41.327,40.12 41.327,53.979 30.206,63.543 30.206,91.191 22.521,91.191 22.521,95.828 24.451,95.828 44.541,95.828 45.713,95.828 45.713,91.191 38.862,91.191"/>
	<polygon points="74.068,70.238 72.3,76.773 57.908,73.047 57.908,55.605 49.5,62.621 49.5,79.65 70.04,85.125 68.01,92.627 72.486,93.838 78.542,71.449"/>
</svg>
