<svg xmlns="http://www.w3.org/2000/svg" viewBox="0 0 100 100">
	<path d="M28.158,18.055c4.146,0,7.509,3.368,7.509,7.521 c0,4.152-3.362,7.521-7.509,7.521s-7.508-3.368-7.508-7.521C20.65,21.423,24.012,18.055,28.158,18.055z"/>
	<path d="M2.904,34.464l2.445,5.729h24.572l11.58,9.312h24.195v-15.04 H45.222l21.841-23.245l-4.095-4.103L35.667,34.464H2.904z"/>
	<path d="M68.429,49.504v-9.306L92.76,16.922l4.336,5.235L68.429,49.504z"/>
	<path d="M54.777,51.939h8.19v36.174h8.19v4.771H46.439v-4.771h8.338 V51.939z"/>
</svg>
