<svg xmlns="http://www.w3.org/2000/svg" viewBox="0 0 100 100">
    <path d="M34.027,16.08c4.587,0,8.307,3.725,8.307,8.32c0,4.595-3.72,8.319-8.307,8.319 s-8.306-3.724-8.306-8.319C25.721,19.805,29.44,16.08,34.027,16.08z"/>
	<path d="M22.526,74.959H14.22v-2.56h6.326v-2.56h-8.882v5.119H9.748 c-2.47,0-4.473,2.007-4.473,4.48s2.003,4.48,4.473,4.48h12.779c2.47,0,4.472-2.007,4.472-4.48S24.997,74.959,22.526,74.959z"/>
	<path d="M65.529,55.76l5.664,7.959h-23.75V83.92h-7.666V55.76H65.529z"/>
	<polygon points="81.947,78.8 72.981,66.218 64.926,66.218 76.836,83.92 94.725,83.92 94.725,78.8"/>
	<polygon points="63.811,53.324 49.111,32.719 40.837,32.719 11.664,67.279 20.609,67.279 42.333,42.96 49.231,53.324"/>
</svg>
