<svg xmlns="http://www.w3.org/2000/svg" viewBox="0 0 100 100">
    <path d="M94.148 72.433V57.718c-4.262 0-7.717-3.456-7.717-7.718s3.455-7.718 7.717-7.718V27.566c0-3.965-3.214-7.179-7.179-7.179H13.031c-3.964 0-7.18 3.214-7.18 7.179v14.716c4.263 0 7.718 3.456 7.718 7.718s-3.455 7.718-7.718 7.718v14.715c0 3.964 3.216 7.18 7.18 7.18H86.97c3.965-.001 7.178-3.217 7.178-7.18zm-80.22-.898v-7.967c4.619-2.76 7.718-7.81 7.718-13.568s-3.099-10.809-7.718-13.568v-7.967h72.145v7.967c-4.618 2.76-7.717 7.81-7.717 13.568s3.099 10.809 7.717 13.568v7.967H13.928z"/>
    <circle cx="62.024" cy="33.848" r="2.692"/>
    <circle cx="62.024" cy="44.614" r="2.692"/>
    <circle cx="62.024" cy="55.384" r="2.692"/>
    <circle cx="62.024" cy="66.151" r="2.692"/>
</svg>
