<svg xmlns="http://www.w3.org/2000/svg" viewBox="0 0 100 100">
    <path d="M50 11.864c-21.062 0-38.137 17.074-38.137 38.136 0 21.061 17.075 38.135 38.137 38.135S88.136 71.061 88.136 50C88.137 28.938 71.062 11.864 50 11.864zm21.256 59.393C65.578 76.935 58.029 80.062 50 80.062s-15.578-3.127-21.256-8.805S19.941 58.029 19.941 50c0-8.029 3.126-15.578 8.804-21.256C34.422 23.067 41.971 19.94 50 19.94c8.029 0 15.578 3.127 21.255 8.804C76.935 34.422 80.06 41.971 80.06 50c.001 8.029-3.124 15.579-8.804 21.257z"/>
    <path d="M55.109 51.449V27.658c0-1.19-.959-2.064-2.148-2.064h-5.383c-1.189 0-2.159.874-2.159 2.064v26.918c0 .545.184 1.062.539 1.419.167.167 11.228 11.229 11.228 11.229.494.494 1.578.215 2.418-.627l3.809-3.807c.84-.841 1.117-1.924.623-2.419l-8.927-8.922z"/>
</svg>
