<?xml version="1.0" standalone="no"?>
<!DOCTYPE svg PUBLIC "-//W3C//DTD SVG 20010904//EN"
 "http://www.w3.org/TR/2001/REC-SVG-20010904/DTD/svg10.dtd">
<svg version="1.0" xmlns="http://www.w3.org/2000/svg"
 width="700.000000pt" height="700.000000pt" viewBox="0 0 700.000000 700.000000"
 preserveAspectRatio="xMidYMid meet">
<metadata>
Created by potrace 1.11, written by Peter Selinger 2001-2013
</metadata>
<g transform="translate(0.000000,700.000000) scale(0.100000,-0.100000)"
fill="#000000" stroke="none">
<path d="M3380 6580 l0 -89 -72 -3 -73 -3 -5 -337 -5 -337 -320 186 c-176 102
-327 188 -335 190 -11 3 -31 -24 -69 -92 -44 -79 -55 -94 -67 -84 -8 7 -16 10
-18 8 -12 -13 -146 -256 -146 -264 0 -6 216 -134 480 -285 l480 -275 0 -593
c0 -561 -1 -592 -17 -583 -10 5 -171 98 -358 206 -187 108 -427 247 -532 308
l-193 111 0 563 0 563 -155 0 -155 0 0 -90 0 -90 -75 0 -75 0 -2 -339 -3 -340
-330 190 c-181 104 -332 189 -335 189 -3 0 -30 -42 -59 -94 -41 -72 -58 -92
-71 -89 -14 4 -31 -18 -75 -94 -32 -54 -66 -112 -76 -129 l-19 -32 342 -198
c189 -109 355 -205 369 -214 l27 -15 -294 -169 c-162 -93 -294 -170 -294 -173
0 -2 7 -18 16 -35 19 -37 20 -36 -94 -99 l-72 -40 27 -47 c15 -26 50 -86 78
-134 l50 -87 487 279 487 278 403 -231 c222 -128 485 -279 586 -337 168 -97
180 -105 160 -116 -13 -7 -243 -139 -511 -293 -269 -155 -492 -281 -496 -281
-4 0 -222 124 -484 275 -262 151 -481 275 -486 275 -5 0 -33 -43 -62 -95 -42
-76 -55 -92 -66 -83 -7 6 -15 9 -17 7 -2 -2 -30 -49 -61 -104 -32 -55 -66
-114 -76 -132 l-19 -31 364 -209 c201 -114 365 -211 366 -215 0 -3 -127 -79
-282 -169 -156 -89 -287 -165 -291 -169 -5 -4 -1 -23 8 -41 20 -39 22 -37 -93
-100 l-73 -41 19 -31 c11 -18 45 -77 77 -132 31 -55 58 -101 59 -102 1 -1 184
103 407 232 l404 234 3 -469 2 -470 160 0 160 0 0 85 0 84 68 3 67 3 3 515 3
515 507 293 c279 161 526 304 550 318 l42 25 -2 -676 -3 -676 -400 -230 c-220
-127 -404 -234 -409 -239 -8 -8 -4 -23 22 -71 1 -3 -38 -30 -88 -58 -50 -29
-89 -56 -87 -59 2 -4 37 -64 77 -134 l73 -128 31 19 c17 10 201 116 409 234
l377 216 0 -470 0 -469 155 0 155 0 0 90 0 90 70 0 70 0 2 340 3 340 299 -170
c165 -94 318 -181 341 -194 l41 -25 55 95 c40 71 58 94 71 90 13 -3 35 27 93
126 42 72 74 132 72 134 -1 2 -218 127 -482 279 -264 152 -483 280 -488 284
-4 4 -6 271 -5 594 l3 587 550 -318 550 -319 3 -561 2 -562 155 0 155 0 0 85
0 85 70 0 70 0 0 345 c0 190 2 345 3 345 2 0 156 -88 342 -195 186 -107 339
-194 340 -192 2 1 26 44 55 95 40 71 57 91 69 87 13 -4 34 23 90 121 40 69 70
131 68 137 -3 7 -165 104 -361 217 -196 113 -356 207 -356 210 0 3 127 77 281
165 154 88 285 163 292 167 8 5 7 16 -6 43 -9 20 -17 37 -17 39 0 2 38 26 85
52 47 26 85 52 85 57 0 17 -144 257 -153 257 -5 0 -216 -119 -469 -265 -252
-146 -469 -270 -481 -276 -20 -9 -95 31 -597 321 -316 182 -576 334 -577 338
-1 4 205 126 459 272 254 146 483 277 508 292 l46 26 489 -278 489 -279 55 95
c40 71 58 94 71 91 13 -3 34 26 89 120 40 69 70 130 68 137 -3 6 -165 103
-361 214 -196 112 -354 207 -351 212 3 4 132 81 287 171 156 89 285 164 287
166 3 2 -3 19 -12 38 -9 20 -17 37 -17 39 0 2 38 26 85 52 47 26 85 52 85 58
0 13 -143 256 -151 256 -3 0 -183 -102 -400 -226 -216 -124 -399 -228 -406
-231 -11 -4 -13 82 -13 466 l0 472 -152 -3 -153 -3 -3 -87 -3 -88 -69 0 -70 0
0 -514 0 -514 -545 -316 c-300 -174 -550 -316 -555 -316 -7 0 -9 233 -8 672
l3 672 405 232 c223 128 410 235 415 237 6 2 3 19 -7 41 -10 20 -18 38 -18 40
0 2 38 26 85 52 47 26 85 51 85 56 0 15 -141 258 -150 258 -4 0 -187 -103
-405 -230 -218 -126 -401 -230 -406 -230 -5 0 -9 191 -9 470 l0 470 -150 0
-150 0 0 -90z"/>
</g>
</svg>
